<svg width="30" height="30" viewBox="0 0 30 30" fill="none" xmlns="http://www.w3.org/2000/svg">
<path d="M27.8906 15H11.4844" stroke="black" stroke-width="1.5"/>
<path d="M16.1719 10.3125L11.4844 15L16.1719 19.6875" stroke="black" stroke-width="1.5"/>
<path d="M23.278 10.3125C22.2208 8.18167 20.4744 6.47077 18.3222 5.45763C16.1701 4.44449 13.7387 4.18861 11.4228 4.73154C9.10689 5.27447 7.04252 6.58432 5.56491 8.4484C4.08729 10.3125 3.2832 12.6213 3.2832 15C3.2832 17.3787 4.08729 19.6875 5.56491 21.5516C7.04252 23.4157 9.10689 24.7256 11.4228 25.2685C13.7387 25.8114 16.1701 25.5555 18.3222 24.5424C20.4744 23.5292 22.2208 21.8184 23.278 19.6875" stroke="black" stroke-width="1.5"/>
</svg>
