<svg width="303" height="162" viewBox="0 0 303 162" fill="none" xmlns="http://www.w3.org/2000/svg">
<path fill-rule="evenodd" clip-rule="evenodd" d="M83.4563 49.7533C85.0952 52.1955 83.1955 55.2559 80.2544 55.2559H11.9353C8.99418 55.2559 7.09447 52.1955 8.73334 49.7533C16.7177 37.8554 30.4695 30 46.0948 30C61.7202 30 75.4719 37.8554 83.4563 49.7533Z" fill="#B2A4D4"/>
<path fill-rule="evenodd" clip-rule="evenodd" d="M47.7702 40.1873C47.7702 39.1206 46.9055 38.2559 45.8388 38.2559V38.2559C44.7721 38.2559 43.9074 39.1206 43.9074 40.1873V76.9035C43.9074 76.9087 43.9032 76.9129 43.898 76.9129V76.9129C43.8933 76.9129 43.8893 76.9165 43.8887 76.9212C43.7248 78.3668 42.4986 79.49 41.0102 79.49C40.1818 79.49 39.4346 79.142 38.9066 78.5842C38.1729 77.809 37.323 76.9129 36.2557 76.9129H34.5801C34.3997 76.9129 34.2503 77.0547 34.2503 77.235V77.235C34.2503 80.9712 37.2768 84 41.0102 84C44.6345 84 47.5926 81.1457 47.7625 77.5609C47.7626 77.5588 47.7643 77.5572 47.7663 77.5572V77.5572C47.7685 77.5572 47.7702 77.5554 47.7702 77.5533V40.1873Z" fill="#B2A4D4"/>
<path d="M43.9693 19.4947C44.0535 19.3598 44.1315 19.2455 44.2005 19.1503C44.2693 19.2334 44.346 19.334 44.4275 19.4538C44.7604 19.9431 45.1793 20.7617 45.4666 22.0435C45.4405 22.762 44.8608 23.324 44.1649 23.324C43.4741 23.324 42.8977 22.7701 42.8638 22.0592C43.2221 20.8462 43.6435 20.0161 43.9693 19.4947Z" fill="#E5E5E5" stroke="#B2A4D4"/>
<path d="M21.4361 14.0827C21.5204 13.9479 21.5984 13.8335 21.6673 13.7383C21.7361 13.8215 21.8128 13.922 21.8944 14.0418C22.2273 14.5311 22.6462 15.3498 22.9335 16.6316C22.9074 17.35 22.3276 17.912 21.6317 17.912C20.9409 17.912 20.3646 17.3582 20.3307 16.6472C20.6889 15.4342 21.1104 14.6041 21.4361 14.0827Z" fill="#E5E5E5" stroke="#B2A4D4"/>
<path d="M1.60702 28.5147C1.69128 28.3798 1.76925 28.2654 1.83823 28.1703C1.90701 28.2534 1.98371 28.3539 2.06526 28.4738C2.39815 28.963 2.8171 29.7817 3.10438 31.0635C3.07829 31.7819 2.49852 32.3439 1.80265 32.3439C1.11185 32.3439 0.53545 31.7901 0.501574 31.0792C0.859819 29.8662 1.28126 29.0361 1.60702 28.5147Z" fill="#E5E5E5" stroke="#B2A4D4"/>
<path d="M71.0089 16.7887C71.0932 16.6539 71.1712 16.5395 71.2401 16.4443C71.3089 16.5274 71.3856 16.628 71.4672 16.7478C71.8001 17.2371 72.219 18.0558 72.5063 19.3375C72.4802 20.056 71.9004 20.618 71.2046 20.618C70.5138 20.618 69.9374 20.0641 69.9035 19.3532C70.2617 18.1402 70.6832 17.3101 71.0089 16.7887Z" fill="#E5E5E5" stroke="#B2A4D4"/>
<path d="M89.9367 33.9267C90.021 33.7918 90.099 33.6774 90.1679 33.5822C90.2367 33.6654 90.3134 33.7659 90.395 33.8858C90.7279 34.375 91.1468 35.1937 91.4341 36.4755C91.408 37.1939 90.8282 37.7559 90.1324 37.7559C89.4416 37.7559 88.8652 37.2021 88.8313 36.4911C89.1895 35.2781 89.611 34.448 89.9367 33.9267Z" fill="#E5E5E5" stroke="#B2A4D4"/>
<path d="M167.126 19.5005V36.106H177.333V41.0571H167.126V57.9673H161.184V19.5005H167.126ZM148.616 23.9185C148.54 40.981 136.581 53.1685 116.548 58.6528L114.11 53.854C130.792 49.3599 140.961 40.3335 142.218 28.8696H117.157V23.9185H148.616ZM167.126 61.0903V86.3032H124.241V61.0903H167.126ZM130.182 66.0415V81.4282H161.184V66.0415H130.182ZM240.705 19.5005V87.2173H234.687V19.5005H240.705ZM220.672 26.8892C220.595 46.3892 211.531 63.604 188.832 74.4966L185.556 69.6216C203.876 60.938 213.207 47.9507 214.578 31.7642H188.679V26.8892H220.672Z" fill="white"/>
<mask id="path-9-inside-1_17_16" fill="white">
<path fill-rule="evenodd" clip-rule="evenodd" d="M130.319 2.45577C127.941 2.96715 126.149 4.91258 125.823 7.33815L125.626 8.80664C125.547 9.39244 125.542 9.97122 125.602 10.5339C121.891 8.88274 117.296 11.7305 116.365 17.5544C115.577 22.4814 118.651 27.1301 123.231 27.9377C124.526 28.1661 125.803 28.0628 126.987 27.6858L138.75 25.4554C142.417 25.4969 147.072 21.8489 147.359 17.7091C147.641 13.6568 143.283 9.38669 139.772 9.87237C139.684 9.13338 139.471 8.41286 139.143 7.74222L138.611 6.65866C137.323 4.03185 134.668 2.35093 131.772 2.32809L131.584 2.32661C131.158 2.32325 130.734 2.36656 130.319 2.45577Z"/>
</mask>
<path d="M125.823 7.33815L123.846 7.04041L123.846 7.04041L125.823 7.33815ZM130.319 2.45577L129.874 0.494634L129.874 0.494635L130.319 2.45577ZM125.626 8.80664L123.649 8.50891L123.649 8.50891L125.626 8.80664ZM125.602 10.5339L124.818 12.3655L127.953 13.7604L127.586 10.3479L125.602 10.5339ZM126.987 27.6858L126.588 25.7151L126.471 25.7373L126.358 25.7735L126.987 27.6858ZM138.75 25.4554L138.742 23.4503L138.545 23.4481L138.352 23.4847L138.75 25.4554ZM147.359 17.7091L145.369 17.5395L145.369 17.5395L147.359 17.7091ZM139.772 9.87237L137.791 10.0798L138.035 12.1408L140.073 11.8589L139.772 9.87237ZM139.143 7.74222L140.929 6.87742L140.929 6.87742L139.143 7.74222ZM138.611 6.65866L136.825 7.52346L136.825 7.52346L138.611 6.65866ZM131.772 2.32809L131.786 4.33324L131.786 4.33324L131.772 2.32809ZM131.584 2.32661L131.569 0.321468L131.569 0.321468L131.584 2.32661ZM127.8 7.63588C128.015 6.03669 129.196 4.75406 130.764 4.41691L129.874 0.494635C126.685 1.18024 124.283 3.78847 123.846 7.04041L127.8 7.63588ZM127.603 9.10437L127.8 7.63588L123.846 7.04041L123.649 8.50891L127.603 9.10437ZM127.586 10.3479C127.542 9.94532 127.546 9.52899 127.603 9.10437L123.649 8.50891C123.549 9.2559 123.541 9.99711 123.619 10.7199L127.586 10.3479ZM126.387 8.70228C123.799 7.551 120.986 8.01918 118.771 9.59993C116.56 11.1773 114.934 13.8421 114.395 17.2071L118.335 17.9017C118.728 15.4429 119.865 13.7718 121.112 12.8821C122.354 11.9958 123.695 11.8656 124.818 12.3655L126.387 8.70228ZM114.395 17.2071C113.454 23.0917 117.119 28.8906 122.915 29.9126L123.547 25.9628C120.183 25.3696 117.7 21.871 118.335 17.9017L114.395 17.2071ZM122.915 29.9126C124.538 30.1988 126.139 30.0685 127.615 29.5981L126.358 25.7735C125.468 26.0572 124.514 26.1334 123.547 25.9628L122.915 29.9126ZM127.385 29.6564L139.148 27.426L138.352 23.4847L126.588 25.7151L127.385 29.6564ZM138.757 27.4605C141.197 27.4881 143.721 26.3235 145.631 24.6829C147.547 23.0368 149.157 20.64 149.349 17.8787L145.369 17.5395C145.274 18.9179 144.413 20.4151 143.013 21.6176C141.607 22.8255 139.97 23.4642 138.742 23.4503L138.757 27.4605ZM149.349 17.8787C149.542 15.1089 148.166 12.4847 146.393 10.6878C144.646 8.91673 142.08 7.52489 139.471 7.88581L140.073 11.8589C140.975 11.7342 142.343 12.2346 143.582 13.4902C144.795 14.7201 145.458 16.257 145.369 17.5395L149.349 17.8787ZM137.356 8.60702C137.583 9.07068 137.73 9.56884 137.791 10.0798L141.752 9.66497C141.638 8.69791 141.36 7.75503 140.929 6.87742L137.356 8.60702ZM136.825 7.52346L137.356 8.60702L140.929 6.87742L140.398 5.79386L136.825 7.52346ZM131.786 4.33324C133.92 4.35006 135.875 5.58835 136.825 7.52346L140.398 5.79386C138.77 2.47534 135.416 0.351799 131.757 0.322952L131.786 4.33324ZM131.598 4.33175L131.786 4.33324L131.757 0.322952L131.569 0.321468L131.598 4.33175ZM130.764 4.41691C131.038 4.35809 131.317 4.32954 131.598 4.33175L131.569 0.321468C130.999 0.316969 130.43 0.375035 129.874 0.494634L130.764 4.41691Z" fill="white" mask="url(#path-9-inside-1_17_16)"/>
<rect width="1.72397" height="2.06048" rx="0.861986" transform="matrix(0.984808 0.173648 -0.157934 0.98745 129.617 12.0063)" fill="white"/>
<rect width="3" height="3" rx="1.5" transform="matrix(0.984808 0.173648 -0.157934 0.98745 124.273 17.1461)" fill="#ECCECE"/>
<rect width="1.72397" height="2.06048" rx="0.861986" transform="matrix(0.984808 0.173648 -0.157934 0.98745 133.597 11.6023)" fill="white"/>
<rect width="3" height="3" rx="1.5" transform="matrix(0.984808 0.173648 -0.157934 0.98745 139.566 16.7964)" fill="#ECCECE"/>
<path d="M130.815 18.9837C132.437 19.9133 134.669 18.7417 136.125 17.3765" stroke="white" stroke-width="2" stroke-linecap="round"/>
<path d="M40.8664 30.2921C30.5133 38.3052 26.7358 43.8646 22.8664 55.2921" stroke="white"/>
<path d="M68.4606 55C64.0917 42.8317 59.8225 37.2821 48.4606 30" stroke="white"/>
<path d="M44.9311 30.1694C39.5627 39.6574 37.74 45.1532 35.9311 55.1694" stroke="white"/>
<path d="M45.9606 30C51.5356 40.3687 54.0442 45.7824 54.9606 55" stroke="white"/>
</svg>
