<svg width="303" height="162" viewBox="0 0 303 162" fill="none" xmlns="http://www.w3.org/2000/svg">
<path fill-rule="evenodd" clip-rule="evenodd" d="M83.9957 49.7533C85.6345 52.1955 83.7348 55.2559 80.7937 55.2559H12.4746C9.53355 55.2559 7.63383 52.1955 9.2727 49.7533C17.2571 37.8554 31.0088 30 46.6342 30C62.2595 30 76.0113 37.8554 83.9957 49.7533Z" fill="#B2A4D4"/>
<path fill-rule="evenodd" clip-rule="evenodd" d="M48.3096 40.1873C48.3096 39.1206 47.4448 38.2559 46.3781 38.2559V38.2559C45.3115 38.2559 44.4467 39.1206 44.4467 40.1873V76.9035C44.4467 76.9087 44.4426 76.9129 44.4374 76.9129V76.9129C44.4326 76.9129 44.4286 76.9165 44.4281 76.9212C44.2642 78.3668 43.038 79.49 41.5496 79.49C40.7212 79.49 39.974 79.142 39.4459 78.5842C38.7122 77.809 37.8624 76.9129 36.7951 76.9129H35.1194C34.9391 76.9129 34.7897 77.0547 34.7897 77.235V77.235C34.7897 80.9712 37.8162 84 41.5496 84C45.1738 84 48.1319 81.1457 48.3018 77.5609C48.3019 77.5588 48.3036 77.5572 48.3057 77.5572V77.5572C48.3078 77.5572 48.3096 77.5554 48.3096 77.5533V40.1873Z" fill="#B2A4D4"/>
<path d="M44.5086 19.4947C44.5929 19.3599 44.6709 19.2455 44.7398 19.1503C44.8086 19.2334 44.8853 19.334 44.9669 19.4538C45.2998 19.9431 45.7187 20.7617 46.006 22.0435C45.9799 22.762 45.4001 23.324 44.7043 23.324C44.0135 23.324 43.4371 22.7701 43.4032 22.0592C43.7614 20.8462 44.1829 20.0161 44.5086 19.4947Z" fill="#E5E5E5" stroke="#B2A4D4"/>
<path d="M21.9755 14.0827C22.0598 13.9479 22.1377 13.8335 22.2067 13.7383C22.2755 13.8215 22.3522 13.922 22.4337 14.0418C22.7666 14.5311 23.1856 15.3498 23.4728 16.6316C23.4468 17.35 22.867 17.912 22.1711 17.912C21.4803 17.912 20.9039 17.3582 20.87 16.6472C21.2283 15.4342 21.6497 14.6041 21.9755 14.0827Z" fill="#E5E5E5" stroke="#B2A4D4"/>
<path d="M2.14639 28.5147C2.23065 28.3798 2.30862 28.2654 2.3776 28.1703C2.44638 28.2534 2.52308 28.3539 2.60463 28.4738C2.93752 28.963 3.35647 29.7817 3.64375 31.0635C3.61766 31.7819 3.03788 32.3439 2.34202 32.3439C1.65121 32.3439 1.07482 31.7901 1.04094 31.0792C1.39919 29.8662 1.82063 29.0361 2.14639 28.5147Z" fill="#E5E5E5" stroke="#B2A4D4"/>
<path d="M71.5483 16.7887C71.6326 16.6539 71.7105 16.5395 71.7795 16.4443C71.8483 16.5274 71.925 16.628 72.0065 16.7478C72.3394 17.2371 72.7584 18.0558 73.0457 19.3375C73.0196 20.056 72.4398 20.618 71.7439 20.618C71.0531 20.618 70.4767 20.0641 70.4429 19.3532C70.8011 18.1402 71.2225 17.3101 71.5483 16.7887Z" fill="#E5E5E5" stroke="#B2A4D4"/>
<path d="M90.4762 33.9267C90.5604 33.7918 90.6384 33.6774 90.7074 33.5822C90.7762 33.6654 90.8529 33.7659 90.9344 33.8858C91.2673 34.375 91.6862 35.1937 91.9735 36.4755C91.9474 37.1939 91.3677 37.7559 90.6718 37.7559C89.981 37.7559 89.4046 37.2021 89.3707 36.4911C89.729 35.2781 90.1504 34.448 90.4762 33.9267Z" fill="#E5E5E5" stroke="#B2A4D4"/>
<path d="M167.665 19.5005V36.106H177.872V41.0571H167.665V57.9673H161.724V19.5005H167.665ZM149.155 23.9185C149.079 40.981 137.12 53.1685 117.087 58.6528L114.65 53.854C131.331 49.3599 141.5 40.3335 142.757 28.8696H117.696V23.9185H149.155ZM167.665 61.0903V86.3032H124.78V61.0903H167.665ZM130.722 66.0415V81.4282H161.724V66.0415H130.722ZM241.244 19.5005V87.2173H235.227V19.5005H241.244ZM221.211 26.8892C221.135 46.3892 212.07 63.604 189.371 74.4966L186.096 69.6216C204.415 60.938 213.746 47.9507 215.117 31.7642H189.219V26.8892H221.211Z" fill="black"/>
<mask id="path-9-inside-1_16_56" fill="white">
<path fill-rule="evenodd" clip-rule="evenodd" d="M130.808 2.77143C128.429 3.28281 126.638 5.22824 126.312 7.6538L126.115 9.12229C126.036 9.7081 126.031 10.2869 126.091 10.8496C122.38 9.19839 117.785 12.0462 116.854 17.8701C116.066 22.797 119.14 27.4458 123.72 28.2534C125.015 28.4817 126.292 28.3785 127.475 28.0014L139.239 25.771C142.906 25.8126 147.561 22.1645 147.848 18.0248C148.129 13.9725 143.772 9.70235 140.261 10.188C140.173 9.44903 139.96 8.72851 139.631 8.05788L139.1 6.97432C137.812 4.3475 135.157 2.66658 132.261 2.64375L132.072 2.64227C131.647 2.63891 131.223 2.68222 130.808 2.77143Z"/>
</mask>
<path d="M126.312 7.6538L124.335 7.35607L124.335 7.35607L126.312 7.6538ZM130.808 2.77143L130.363 0.81029L130.363 0.81029L130.808 2.77143ZM126.115 9.12229L124.138 8.82456L124.138 8.82456L126.115 9.12229ZM126.091 10.8496L125.307 12.6812L128.442 14.076L128.074 10.6635L126.091 10.8496ZM127.475 28.0014L127.077 26.0308L126.96 26.053L126.847 26.0891L127.475 28.0014ZM139.239 25.771L139.231 23.766L139.034 23.7637L138.841 23.8004L139.239 25.771ZM147.848 18.0248L145.858 17.8552L145.858 17.8552L147.848 18.0248ZM140.261 10.188L138.28 10.3954L138.524 12.4565L140.562 12.1746L140.261 10.188ZM139.631 8.05788L141.418 7.19308L141.418 7.19308L139.631 8.05788ZM139.1 6.97432L137.313 7.83912L137.313 7.83912L139.1 6.97432ZM132.261 2.64375L132.275 4.64889L132.275 4.64889L132.261 2.64375ZM132.072 2.64227L132.058 0.637124L132.058 0.637124L132.072 2.64227ZM128.289 7.95153C128.504 6.35235 129.685 5.06972 131.253 4.73256L130.363 0.81029C127.174 1.4959 124.772 4.10413 124.335 7.35607L128.289 7.95153ZM128.092 9.42002L128.289 7.95153L124.335 7.35607L124.138 8.82456L128.092 9.42002ZM128.074 10.6635C128.031 10.261 128.035 9.84465 128.092 9.42002L124.138 8.82456C124.038 9.57155 124.03 10.3128 124.108 11.0356L128.074 10.6635ZM126.876 9.01794C124.288 7.86666 121.475 8.33483 119.26 9.91558C117.048 11.493 115.422 14.1577 114.884 17.5228L118.823 18.2174C119.217 15.7585 120.354 14.0874 121.601 13.1978C122.843 12.3114 124.184 12.1813 125.307 12.6812L126.876 9.01794ZM114.884 17.5228C113.943 23.4073 117.608 29.2063 123.404 30.2283L124.036 26.2785C120.672 25.6853 118.189 22.1867 118.823 18.2174L114.884 17.5228ZM123.404 30.2283C125.027 30.5145 126.628 30.3841 128.104 29.9138L126.847 26.0891C125.956 26.3728 125.003 26.449 124.036 26.2785L123.404 30.2283ZM127.874 29.9721L139.637 27.7417L138.841 23.8004L127.077 26.0308L127.874 29.9721ZM139.246 27.7761C141.686 27.8037 144.21 26.6392 146.12 24.9986C148.036 23.3524 149.646 20.9557 149.838 18.1943L145.858 17.8552C145.762 19.2336 144.901 20.7308 143.502 21.9332C142.095 23.1412 140.459 23.7799 139.231 23.766L139.246 27.7761ZM149.838 18.1943C150.03 15.4246 148.655 12.8003 146.882 11.0035C145.135 9.23238 142.569 7.84054 139.96 8.20146L140.562 12.1746C141.464 12.0498 142.832 12.5502 144.071 13.8059C145.284 15.0357 145.947 16.5727 145.858 17.8552L149.838 18.1943ZM137.845 8.92268C138.072 9.38634 138.219 9.88449 138.28 10.3954L142.241 9.98063C142.127 9.01357 141.848 8.07069 141.418 7.19308L137.845 8.92268ZM137.313 7.83912L137.845 8.92268L141.418 7.19308L140.887 6.10952L137.313 7.83912ZM132.275 4.64889C134.409 4.66571 136.364 5.90401 137.313 7.83912L140.887 6.10952C139.259 2.791 135.905 0.667454 132.246 0.638607L132.275 4.64889ZM132.087 4.64741L132.275 4.64889L132.246 0.638607L132.058 0.637124L132.087 4.64741ZM131.253 4.73256C131.527 4.67375 131.806 4.6452 132.087 4.64741L132.058 0.637124C131.487 0.632625 130.919 0.69069 130.363 0.81029L131.253 4.73256Z" fill="black" mask="url(#path-9-inside-1_16_56)"/>
<rect width="1.72397" height="2.06048" rx="0.861986" transform="matrix(0.984808 0.173648 -0.157934 0.98745 130.157 12.0063)" fill="#010101"/>
<rect width="3" height="3" rx="1.5" transform="matrix(0.984808 0.173648 -0.157934 0.98745 124.812 17.1461)" fill="#ECCECE"/>
<rect width="1.72397" height="2.06048" rx="0.861986" transform="matrix(0.984808 0.173648 -0.157934 0.98745 134.136 11.6023)" fill="#010101"/>
<rect width="3" height="3" rx="1.5" transform="matrix(0.984808 0.173648 -0.157934 0.98745 140.105 16.7964)" fill="#ECCECE"/>
<path d="M131.355 18.9837C132.977 19.9133 135.209 18.7417 136.664 17.3765" stroke="black" stroke-width="2" stroke-linecap="round"/>
<path d="M41.4058 30.2922C31.0527 38.3052 27.2752 43.8646 23.4058 55.2922" stroke="white"/>
<path d="M69 55C64.6311 42.8317 60.3618 37.2821 49 30" stroke="white"/>
<path d="M45.4705 30.1694C40.1021 39.6574 38.2794 45.1532 36.4705 55.1694" stroke="white"/>
<path d="M46.5 30C52.0749 40.3686 54.5836 45.7823 55.5 55" stroke="white"/>
</svg>
